/* XPM */
static char *result[] = {
/* columns rows colors chars-per-pixel */
"50 50 208 2 ",
"   c #26110B",
".  c #382319",
"X  c #3C2922",
"o  c #39382A",
"O  c #3D3E31",
"+  c #4C190F",
"@  c #49261A",
"#  c #6D2C12",
"$  c #432F22",
"%  c #49362A",
"&  c #4C3B2D",
"*  c #453429",
"=  c #563C29",
"-  c #4D3D31",
";  c #533E34",
":  c #3E4235",
">  c #7B4B08",
",  c #6D491B",
"<  c #424536",
"1  c #454B3B",
"2  c #4B4E3D",
"3  c #494537",
"4  c #554333",
"5  c #5B453A",
"6  c #524B3C",
"7  c #5C4C3D",
"8  c #57443B",
"9  c #4C513F",
"0  c #57482F",
"q  c #775A2A",
"w  c #624B3A",
"e  c #68513B",
"r  c #6A4E24",
"t  c #4A4F40",
"y  c #5C4C41",
"u  c #4D5342",
"i  c #525544",
"p  c #525846",
"a  c #555C4A",
"s  c #5B5A49",
"d  c #5B5745",
"f  c #634E42",
"g  c #674740",
"h  c #655444",
"j  c #695645",
"k  c #69574C",
"l  c #645D4B",
"z  c #6B5A4B",
"x  c #675747",
"c  c #725C47",
"v  c #6D5B51",
"b  c #725D52",
"n  c #724642",
"m  c #5B624E",
"M  c #57604D",
"N  c #5D6551",
"B  c #5E6853",
"V  c #6D604E",
"C  c #64614F",
"Z  c #71624E",
"A  c #7D624B",
"S  c #626652",
"D  c #626A56",
"F  c #656E59",
"G  c #6C6C5A",
"H  c #696154",
"J  c #746454",
"K  c #756854",
"L  c #77665A",
"P  c #766B5A",
"I  c #7A6C5B",
"U  c #796856",
"Y  c #65715B",
"T  c #6B735D",
"R  c #75745E",
"E  c #7F715F",
"W  c #7D6D63",
"Q  c #6E7761",
"!  c #6C7860",
"~  c #7C7361",
"^  c #717C64",
"/  c #797C64",
"(  c #901609",
")  c #B41404",
"_  c #91320A",
"`  c #E60604",
"'  c #E5280B",
"]  c #804F0D",
"[  c #82500D",
"{  c #885F1E",
"}  c #9E4E0A",
"|  c #B35808",
" . c #A25409",
".. c #996408",
"X. c #956414",
"o. c #A76509",
"O. c #A87407",
"+. c #BA740A",
"@. c #885E2C",
"#. c #CE470C",
"$. c #D87E13",
"%. c #E47108",
"&. c #E17339",
"*. c #805C5A",
"=. c #81735E",
"-. c #8B704C",
";. c #816F66",
":. c #9D6062",
">. c #827363",
",. c #867963",
"<. c #897B65",
"1. c #84746B",
"2. c #8B7C6C",
"3. c #887A65",
"4. c #8B7B71",
"5. c #917C70",
"6. c #758067",
"7. c #768168",
"8. c #79856B",
"9. c #7D896F",
"0. c #7E8B70",
"q. c #B28618",
"w. c #B9902A",
"e. c #D9910B",
"r. c #A58344",
"t. c #8D826A",
"y. c #85886C",
"u. c #91866E",
"i. c #93896F",
"p. c #8F8173",
"a. c #828E73",
"s. c #8F8A72",
"d. c #918173",
"f. c #968B74",
"g. c #988E74",
"h. c #94867D",
"j. c #9A8C7C",
"k. c #96887E",
"l. c #849175",
"z. c #879578",
"x. c #899679",
"c. c #8D9B7D",
"v. c #899477",
"b. c #9A9177",
"n. c #9C927A",
"m. c #959578",
"M. c #A29A7D",
"N. c #A1957E",
"B. c #A1A07C",
"V. c #978980",
"C. c #9A8B82",
"Z. c #9E9082",
"A. c #919F81",
"S. c #A29584",
"D. c #A49D81",
"F. c #A2958A",
"G. c #A79A8B",
"H. c #A99D8C",
"J. c #A99F86",
"K. c #93A383",
"L. c #99A888",
"P. c #A4A284",
"I. c #AAA285",
"U. c #ADA58A",
"Y. c #AEA98A",
"T. c #ABAA87",
"R. c #B2AC8D",
"E. c #B7B68D",
"W. c #AEA291",
"Q. c #B2A593",
"!. c #B6AC95",
"~. c #B5A999",
"^. c #B9AD9B",
"/. c #B5B191",
"(. c #B9B595",
"). c #BCB59B",
"_. c #BDB99A",
"`. c #BEBD92",
"'. c #BEB3A1",
"]. c #B5B4A0",
"[. c #C4838C",
"{. c #C1BD9D",
"}. c #C0BC93",
"|. c #C1B6A3",
" X c #C5BAA6",
".X c #C9BEAA",
"XX c #CAC89B",
"oX c #C5C2A2",
"OX c #C8C6A4",
"+X c #CBC1AC",
"@X c #CDCBA9",
"#X c #CAC8A4",
"$X c #D0CEAB",
"%X c #D1CFA0",
"&X c #D3D1AF",
"*X c #DADAA9",
"=X c #D6D4B1",
"-X c #DBDAB6",
";X c #DDDDB9",
":X c #D8D6B4",
">X c #E1E2BD",
",X c #EAE9B5",
"<X c #FBFBBF",
"1X c #FFFFC4",
"2X c #F9F9CD",
"3X c #F1F1DE",
"4X c #EBEBCD",
"5X c None",
/* pixels */
"5X5X5X5X5X5X5X5X5X5X5X5X5X5X5X5X5X5X5X5X5X5X5X5X5X5X5X5X5X5X5X5X5X5X5X5X5X5X5X5X5X5X5X5X5X5X5X5X5X5X",
"5X5X5X5X5X5X5X5X5X5X5X5X5X5X5X5X5X5X5X5X5X5X5X5X5X5X5X5X5X5X5X5X5X5X5X5X5X5X5X5X5X5X5X5X5X5X5X5X5X5X",
"5X5X5X5X5X5X5X5X5X5X5X5X5X5X5X5X5X5X5X5X5X5X5X5X5X5X5X5X5Xy v L z 5X5X5X5X5X5X5X5X5X5X5X5X5X5X5X5X5X",
"5X5X5X5X5X5X5X5X5X5X5X5X5X5X5X5X5X5X5X5X5X5X5X5Xx b 5 5 ;.G.). X|.~.S.3.g 5X5X5X5X5X5X5X5X5X5X5X5X5X",
"5X5X5X5X5X5X5X5X5X5X5X5X5X5X5X5X5X5X5X5X5Xz u.M.5.b 2.S.^.^.Q.S.n.n.S.I.Y.!.oX!.>.5X5X5X5X5X5X5X5X5X",
"5X5X5X5X5X5X5X5X5X5X5X5X5X5X5X5X5X5X5Xh g.R.n.>.z 1.4.2.k.N.U.{.@X&X-X;X>X>X;X>X:XR.b 5X5X5X5X5X5X5X",
"5X5X5X5X5X5X5X5X5X5X5X5X5X5X5X5X5X5XU Y.(.g.w b I 5.J. X=X;X>X>X;X;X;X-X;X-X;X;X;X;X@Xt.5X5X5X5X5X5X",
"5X5X5X5X5X5X5X5X5X5X5X5X5X5X5X5X5Xz U.M.t.c 3.R.@X-X;X;X-X;X-X-X;X>X-X;X;X-X;X;X;X;X;X-XM.5X5X5X5X5X",
"5X5X5X5X5X5X5X5X5X5X5X5X5X5X5X5X  A =.t.P.oX;X;X-X=X$X$X$X:X-X>X;X;X;X-X$XOX).Y.S.m.f.s.R . 5X5X5X5X",
"5X5X5X5X5X5X5X5X5X5X5X5X5X5X5X5Xh b.Y.(.oX&X;X;X-X-X;X-X;X-X&XOX(.n.s.~ P G R ^ 9.l.l.l.^ o 5X5X5X5X",
"5X5X5X5X5X5X5X5X5X5X5X5X5X5X5X. n.(././.{.@X-X;X>X;X&X{.D.t.2.~ 3 G 8.l.c.A.K.K.9.D M a a 1 5X5X5X5X",
"5X5X5X5X5X5X5X5X5X5X5X5X5X5X5X5Xn./.R./.R.@X;X@XY.u.I l n.XX;X3Xy.^ K.K.K.K.K.D R `.OX].G 5X5X5X5X5X",
"5X5X5X5X5X5X5X5X5X5X5X5X5X5X5X5X=././.R.J.g.I 7 t.}.%XE.1X1X1X2Xs.T K.c.K.L./ S ,X1X*X2X4X6 5X5X5X5X",
"5X5X5X5X5X5X5X5X5X5X5X5X5X5X5X5X& g.g.=.I 8 i < P.,X1X1X1X1X1X%Xs z.p a a./ 8.d *X1X<X1X,X2 5X5X5X5X",
"5X5X5X5X5X5X5X5X5X5X5X5X5X5X5X5X5X5X; 5.'.P a m u R T.XXXX`.s.2 8.K.Q a.z.D x.a S n.R.B.s 5X5X5X5X5X",
"5X5X5X5X5X5X5X5X5X5X5X5X5X5X5X5X5X5X5Xf W.j.3 a ! a p p a i M 8.z.a.a.z.a.a.l.a.! B D m O 5X5X5X5X5X",
"5X5X5X5X5X5X5X5X5X5X5X5X5X5X5X5X5X= # > { -.= 9 6.Y Y Y T 6.m p * - W g 5 v.P.k b 6 N a 5X5X5X5X5X5X",
"5X5X5X5X5X5X5X5X5X5X5X5X5X5X7 Z x 2.,.q O.O.> r m Y Y Y 8.M 7 h n g h @ @ K y.* 5X5X5X5X5X5X5X5X5X5X",
"5X5X5X5X5X5X5X5X5X5X5X5X5Xk Z z k. X+XW., ..| _ q m Y 6.9.6 V s.L [.:.# + & 2 5X5X5X5X5X5X5X5X5X5X5X",
"5X5X5X5X5X5X5X5X5X5X5X5XW h.f w H.+X.X|.w ] o. .X.0 p Y 6.l C T l 1.4.I l R T S 5X5X5X5X5X5X5X5X5X5X",
"5X5X5X5X5X5X5X5X5X5X5Xk C.h.h % 2.G.|. Xe [ o.o.@.U d G 9 B 8.z.c.z.z.c.x.7.S m 5X5X5X5X5X5X5X5X5X5X",
"5X5X5X5X5X5X5X5X5X5Xw U x >.I 7 Z.H.j.H.c .._ | X.z K D.* 5XD T T T T Y Y N 5X5X5X5X5X5X5X5X5X5X5X5X",
"5X5X5X5X5X5X5X5X5X5Xf.R.M./.Y.x F..X XF.w o._ | O.= l Y.7 5X5X5X5X5X5X5X5X5X5X5X5X5X5X5X5X5X5X5X5X5X",
"5X5X5X5X5X5X5X5X5X7 T./././.Y.x C.|..X.XA # ) ) +., w =.h 5X5X5X5X5X5X5X5X5X5X5X5X5X5X5X5X5X5X5X5X5X",
"5X5X5X5X5X5X5X5X5XK g.b.n.P.M.h 2.S.d.C.J _ #.#.e.{ ;.h.h.- 5X5X5X5X5X5X5X5X5X5X5X5X5X5X5X5X5X5X5X5X",
"5X5X5X5X5X5X5X5X% D.Y.I.M.b.t.7 t.I._.OXi.( ' ' %.+.5.F.~.L 5X5X5X5X5X5X5X5X5X5X5X5X5X5X5X5X5X5X5X5X",
"5X5X5X5X5X5X5X5X4 >.,.>.=.>.v V oX;X&X-XU.( ` ` &.w.3.'.~.7 5X5X5X5X5X5X5X5X5X5X5X5X5X5X5X5X5X5X5X5X",
"5X5X5X5X5X5X5X5XW k.h.k.k.C.h.J t.{.XX).n.# #.e.r.U k.^.2.5X5X5X5X5X5X5X5X5X5X5X5X5X5X5X5X5X5X5X5X5X",
"5X5X5X5X5X5X5Xh I W 1.p.h.h.V.k.z h 2.S.H.e ..5X5X5Xy S d 5X5X5X5X5X5X5X5X5X5X5X5X5X5X5X5X5X5X5X5X5X",
"5X5X5X5X5X5X& P.R.M.b.u.,.>.>.=.j x ~.+X.X>.5X5X5X5X: T 9.5X5X5X5X5X5X5X5X5X5X5X5X5X5X5X5X5X5X5X5X5X",
"5X5X5X5X5X5X= n._.&X;X;X@XY.U.R.D.f 2.Z.G.2.5X5X5X5X5XN l.M 5X5X5X5X5X5X5X5X5X5X5X5X5X5X5X5X5X5X5X5X",
"5X5X5X5X5X5X5X<.D._.;X;X;Xf.b./.R.x 4.Q.'.U.4 5X5X5X5Xp 0.^ 5X5X5X5X5X5X5X5X5X5X5X5X5X5X5X5X5X5X5X5X",
"5X5X5X5X5X5X5Xv 1.,.j.I.oXf.y I K x t.'. X'.b 5X5X5X5X2 7.0.u 5X5X5X5X5X5X5X5X5X5X5X5X5X5X5X5X5X5X5X",
"5X5X5X5X5X5X5X1.G.'.).Q.S.U 5X5Xh =.z Z./ ~ l 5X5X5X: B c.K.l.T 5X5X5X5X5X5X5X5X5X5X5X5X5X5X5X5X5X5X",
"5X5X5X5X5X5X5X~ F.|..X+X+XW.5X5Xh R m a.v.A.c.m 5X5Xu T ^ 0.l.c.Y 5X5X5X5X5X5X5X5X5X5X5X5X5X5X5X5X5X",
"5X5X5X5X5X5XX 4.F.|.+XF.>.t.* 5X$ i 0.K.K.K.K.^ 5X5X1 D B m p 8.F : 5X5X5X5X5X5X5X5X5X5X5X5X5X5X5X5X",
"5X5X5X5X5X5X* W z 1.t.7 5X5X5X< t ^ 8.c.A.A.K.8.5X5Xu a M M u p m 1 5X5X5X5X5X5X5X5X5X5X5X5X5X5X5X5X",
"5X5X5X5X5X5X5X5X5X5Xi T 2 5X: u B Q 8.a.8.A.x.0.< : u p p p i D Y 5X5X5X5X5X5X5X5X5X5X5X5X5X5X5X5X5X",
"5X5X5X5X5X5X5X5X5X2 Q K.9.t 5XO u F l.D 0.T N x.Y 5X5X1 u u N F 5X5X5X5X5X5X5X5X5X5X5X5X5X5X5X5X5X5X",
"5X5X5X5X5X5X5X5Xa 0.0.T T 5X5X5X< t a ^ 8.G s 8.T 5X5X5X5X5X5X5X5X5X5X5X5X5X5X5X5X5X5X5X5X5X5X5X5X5X",
"5X5X5X5X5X5X5Xu 9.0.i 5X5X5X5X5X5XO 1 2 H 1.2 s d 3 5X5X5X5X5X5X5X5X5X5X5X5X5X5X5X5X5X5X5X5X5X5X5X5X",
"5X5X5X5X5X5Xo S 8.u 5X5X5X5X5X5X5X5X5X5X% V y.y.f.K . 5X5X5X5X5X5X5X5X5X5X5X5X5X5X5X5X5X5X5X5X5X5X5X",
"5X5X5X5X5X- I 4.2 5X5X5X5X5X5X5X5X5X5X5X5X<.(.E.R.<.K 5X5X5X5X5X5X5X5X5X5X5X5X5X5X5X5X5X5X5X5X5X5X5X",
"5XX L W ~ H. X XQ.h 5X5X5X5X5X5X5X. 5X5X5Xz /./.b.f.I.& 5X5X5X5X5X5X5X5X5X5X5X5X5X5X5X5X5X5X5X5X5X5X",
"5X* 4.G.'. X^.U.H.I . 5Xv P I J h h $ c u.Z <.u.P M.Y.U 5X5X5X5X5X5X5X5X5X5X5X5X5X5X5X5X5X5X5X5X5X5X",
"5X5X1.L d.f.j.I.(.u.3.~.'. X XQ.m.f.,.4 g.E.b.j h >.>.V . 5X5X5X5X5X5X5X5X5X5X5X5X5X5X5X5X5X5X5X5X5X",
"5X5Xv f.I._.;X>X).2. X.X|.Q.f.n.'.;X;XXX,.g./.T.x h.V.h.k 5X5X5X5X5X5X5X5X5X5X5X5X5X5X5X5X5X5X5X5X5X",
"5X% t.n.R._._. XU n.|..X4.f.oX;X;X;X;X;X&Xb.,.>.4 k v k 8 5X5X5X5X5X5X5X5X5X5X5X5X5X5X5X5X5X5X5X5X5X",
"5X5X5X5X5X5X5X5X5X5XK P x Y. XoXoX#XoX_.).U.l 5X5X5X5X5X5X5X5X5X5X5X5X5X5X5X5X5X5X5X5X5X5X5X5X5X5X5X",
"5X5X5X5X5X5X5X5X5X5X5X5X5X5X5X5X5X5X5X5X5X5X5X5X5X5X5X5X5X5X5X5X5X5X5X5X5X5X5X5X5X5X5X5X5X5X5X5X5X5X"
};
