/* XPM */
static char *result[] = {
/* columns rows colors chars-per-pixel */
"50 50 208 2 ",
"   c #2D180F",
".  c #38241A",
"X  c #3D2A22",
"o  c #36372B",
"O  c #3C3F31",
"+  c #4C190F",
"@  c #49261A",
"#  c #6D2C12",
"$  c #432E23",
"%  c #433225",
"&  c #4C3B2D",
"*  c #46362A",
"=  c #563C28",
"-  c #4E3D31",
";  c #533E35",
":  c #3E4234",
">  c #7B4B08",
",  c #6D491B",
"<  c #4B4133",
"1  c #434738",
"2  c #454B3B",
"3  c #4B4E3D",
"4  c #474638",
"5  c #554333",
"6  c #5B453A",
"7  c #524B3C",
"8  c #5C4B3D",
"9  c #57453A",
"0  c #4C513F",
"q  c #5F503F",
"w  c #57482F",
"e  c #775A2A",
"r  c #624B3A",
"t  c #68513B",
"y  c #6A4E24",
"u  c #4A4F40",
"i  c #5C4C41",
"p  c #4D5342",
"a  c #525544",
"s  c #525846",
"d  c #555C4A",
"f  c #5A5B4A",
"g  c #5B5745",
"h  c #634E42",
"j  c #674740",
"k  c #655444",
"l  c #695645",
"z  c #69574C",
"x  c #645D4B",
"c  c #6B5A4B",
"v  c #675747",
"b  c #715D48",
"n  c #6D5B51",
"m  c #715D52",
"M  c #724642",
"N  c #5A624E",
"B  c #57604D",
"V  c #5D6551",
"C  c #5E6853",
"Z  c #6D604E",
"A  c #64614F",
"S  c #71624E",
"D  c #7D624B",
"F  c #626552",
"G  c #626A56",
"H  c #656E59",
"J  c #6C6C5A",
"K  c #696154",
"L  c #746454",
"P  c #756854",
"I  c #77665A",
"U  c #756B5A",
"Y  c #7A6C5B",
"T  c #796856",
"R  c #65715B",
"E  c #6A735D",
"W  c #75745E",
"Q  c #7F715F",
"!  c #7D6D63",
"~  c #6E7761",
"^  c #6C7860",
"/  c #7C7361",
"(  c #717C64",
")  c #797C64",
"_  c #901609",
"`  c #B41404",
"'  c #91320A",
"]  c #E60604",
"[  c #E5280B",
"{  c #804F0D",
"}  c #885F1E",
"|  c #944F0B",
" . c #B35808",
".. c #A25409",
"X. c #996408",
"o. c #956414",
"O. c #A76509",
"+. c #A87407",
"@. c #BA740A",
"#. c #885E2C",
"$. c #CE470C",
"%. c #D87E13",
"&. c #E47108",
"*. c #E17339",
"=. c #805C5A",
"-. c #81735E",
";. c #8B704C",
":. c #9D6062",
">. c #827362",
",. c #8B7663",
"<. c #867963",
"1. c #897B65",
"2. c #84746B",
"3. c #8B7C6D",
"4. c #837E6A",
"5. c #8B7B71",
"6. c #917C70",
"7. c #816F66",
"8. c #758067",
"9. c #768168",
"0. c #79856B",
"q. c #7D896F",
"w. c #7E8B70",
"e. c #B28618",
"r. c #B9902A",
"t. c #D9910B",
"y. c #A68444",
"u. c #8D826A",
"i. c #85886C",
"p. c #91866E",
"a. c #93896F",
"s. c #8F8274",
"d. c #838E73",
"f. c #8F8A72",
"g. c #918173",
"h. c #968B74",
"j. c #988E74",
"k. c #94867D",
"l. c #9A8C7C",
"z. c #96887E",
"x. c #849175",
"c. c #899679",
"v. c #8D9B7D",
"b. c #889478",
"n. c #9A9177",
"m. c #9C927A",
"M. c #959578",
"N. c #A29A7D",
"B. c #A1957E",
"V. c #A1A07C",
"C. c #978980",
"Z. c #9A8B82",
"A. c #989882",
"S. c #A29584",
"D. c #A49D81",
"F. c #A2958A",
"G. c #A79A8B",
"H. c #A99D8C",
"J. c #A99F86",
"K. c #93A383",
"L. c #99A888",
"P. c #A4A284",
"I. c #AAA285",
"U. c #ADA58A",
"Y. c #AEA98A",
"T. c #ABAA87",
"R. c #B2AC8D",
"E. c #B7B68D",
"W. c #AEA291",
"Q. c #B2A593",
"!. c #B6AC95",
"~. c #B5A999",
"^. c #B9AD9B",
"/. c #B5B191",
"(. c #B9B595",
"). c #BCB59B",
"_. c #BDB99A",
"`. c #BEBD92",
"'. c #BEB3A1",
"]. c #B5B4A0",
"[. c #C4838C",
"{. c #C1BD9E",
"}. c #C0BC93",
"|. c #C1B6A3",
" X c #C5BAA6",
".X c #C9BEAA",
"XX c #CAC89B",
"oX c #C5C2A2",
"OX c #C8C6A4",
"+X c #CBC1AC",
"@X c #CDCBA9",
"#X c #CAC8A4",
"$X c #D0CEAB",
"%X c #D1CFA0",
"&X c #D3D1AF",
"*X c #DADAA9",
"=X c #D6D4B1",
"-X c #DBDAB6",
";X c #DDDDB9",
":X c #D8D6B4",
">X c #E1E2BD",
",X c #EAE9B5",
"<X c #FBFBBF",
"1X c #FFFFC4",
"2X c #F9F9CD",
"3X c #F1F1DE",
"4X c #EBEBCD",
"5X c None",
/* pixels */
"5X5X5X5X5X5X5X5X5X5X5X5X5X5X5X5X5X5X5X5X5X5X5X5X5X5X5X5X5X5X5X5X5X5X5X5X5X5X5X5X5X5X5X5X5X5X5X5X5X5X",
"5X5X5X5X5X5X5X5X5X5X5X5X5X5X5X5X5X5X5X5X5X5X5X5X5X5X5X5X5X5X5X5X5X5X5X5X5X5X5X5X5X5X5X5X5X5X5X5X5X5X",
"5X5X5X5X5X5X5X5X5X5X5X5X5X5X5X5X5Xn I m h 5X5X5X5X5X5X5X5X5X5X5X5X5X5X5X5X5X5X5X5X5X5X5X5X5X5X5X5X5X",
"5X5X5X5X5X5X5X5X5X5X5X5X5Xr 2.S.Q.|. X).G.7.6 6 b c 5X5X5X5X5X5X5X5X5X5X5X5X5X5X5X5X5X5X5X5X5X5X5X5X",
"5X5X5X5X5X5X5X5X5X>.!.oX!.R.I.S.l.B.S.Q.^.^.F.2.T 1.N.u.c 5X5X5X5X5X5X5X5X5X5X5X5X5X5X5X5X5X5X5X5X5X",
"5X5X5X5X5X5X5Xm R.:X;X;X>X;X;X-X:X@X{.Y.S.h.3.3.2.c >.l.R.j.v 5X5X5X5X5X5X5X5X5X5X5X5X5X5X5X5X5X5X5X",
"5X5X5X5X5X5Xu.@X>X;X;X;X-X;X;X;X;X;X;X;X;X:X XJ.6.Y L r j.(.Y.P 5X5X5X5X5X5X5X5X5X5X5X5X5X5X5X5X5X5X",
"5X5X5X5X5XB.:X;X;X;X;X;X;X;X;X;X-X;X;X-X;X-X;X;X-X@XR.,.S 1.N.U.l 5X5X5X5X5X5X5X5X5X5X5X5X5X5X5X5X5X",
"5X5X5X5X. W f.h.M.S.U.).OX$X-X;X;X;X;X-X:X$X$X@X:X-X;X-XOXJ.1.,.S   5X5X5X5X5X5X5X5X5X5X5X5X5X5X5X5X",
"5X5X5X5Xo ( d.x.d.d.) W E J Q u.D./.OX=X;X;X;X;X-X;X;X-X$XOX(.T.n.v 5X5X5X5X5X5X5X5X5X5X5X5X5X5X5X5X",
"5X5X5X5X1 B d N G 0.K.K.K.v.x.0.E 4 ! 4.u.J.{.&X;X;X;X;X$X{./.R./.m.@ 5X5X5X5X5X5X5X5X5X5X5X5X5X5X5X",
"5X5X5X5X5XJ ].#X`.) C K.K.K.K.K.( 4.3X;XXXm.x U p.U.$X;X#XR./././.m.5X5X5X5X5X5X5X5X5X5X5X5X5X5X5X5X",
"5X5X5X5Xa 4X2X%X1X,XA 9.L.K.v.A.~ f.2X1X1X1XE.%X}.i.8 Y n.N.R././.-.5X5X5X5X5X5X5X5X5X5X5X5X5X5X5X5X",
"5X5X5X5X4 ,X1X<X1X*Xg 8.) d.d s b.f XX1X1X1X1X1X,XP.1 a 9 -.-.j.j.& 5X5X5X5X5X5X5X5X5X5X5X5X5X5X5X5X",
"5X5X5X5X5XA V.E.m.N d v.G c.d.~ K.0.0 a.`.%XXXT.W 3 N d I |.6.; 5X5X5X5X5X5X5X5X5X5X5X5X5X5X5X5X5X5X",
"5X5X5X5X5Xo V G G ( d.d.x.d.d.d.x.b.0.N a s s s B ~ d < z.Q.h 5X5X5X5X5X5X5X5X5X5X5X5X5X5X5X5X5X5X5X",
"5X5X5X5X5X5Xf V 4 m z P.f.i i U < % g A 9.~ R R R ( p - ;.} > # = 5X5X5X5X5X5X5X5X5X5X5X5X5X5X5X5X5X",
"5X5X5X5X5X5X5X5X5X5X* i.J @ @ z r M h i g 0.R R R V y > +.+.e -.3.v L 9 5X5X5X5X5X5X5X5X5X5X5X5X5X5X",
"5X5X5X5X5X5X5X5X5X5X5X3 - + # :.[.=.h.A 7 q.( R N e ' O.X., R.+X XZ.c L c 5X5X5X5X5X5X5X5X5X5X5X5X5X",
"5X5X5X5X5X5X5X5X5X5XV W J x Y 6.2.c E x x 8.R d w o...X.{ r |.+X.XH.h r k.! 5X5X5X5X5X5X5X5X5X5X5X5X",
"5X5X5X5X5X5X5X5X5X5XV G 9.c.v.c.b.c.b.0.V p J g I #.O.O.{ t .X|.J.3.* l k.Z.c 5X5X5X5X5X5X5X5X5X5X5X",
"5X5X5X5X5X5X5X5X5X5X5X5XV H R E E E ~ C 5X* N.P b X. ._ X.t H.l.H.Z.6 Y >.c T 8 5X5X5X5X5X5X5X5X5X5X",
"5X5X5X5X5X5X5X5X5X5X5X5X5X5X5X5X5X5X5X5X5X8 Y.x = O. ...X.r S..X.XF.c U.R.N.R.a.5X5X5X5X5X5X5X5X5X5X",
"5X5X5X5X5X5X5X5X5X5X5X5X5X5X5X5X5X5X5X5X5Xv Q r , @.` ` # D .X.X'.Z.c T./.(./.T.9 5X5X5X5X5X5X5X5X5X",
"5X5X5X5X5X5X5X5X5X5X5X5X5X5X5X5X5X5X5X5X- k.k.2.} t.$.$.' S m.g.S.5.k N.D.N.n.n.P 5X5X5X5X5X5X5X5X5X",
"5X5X5X5X5X5X5X5X5X5X5X5X5X5X5X5X5X5X5X5XI Q.F.6.e.&.[ [ _ a.OX_.I.1.8 u.h.N.I.R.N.& 5X5X5X5X5X5X5X5X",
"5X5X5X5X5X5X5X5X5X5X5X5X5X5X5X5X5X5X5X5X8 !.'.,.r.*.] ] _ U.-X&X;X#XS c / >.>.>.>.5 5X5X5X5X5X5X5X5X",
"5X5X5X5X5X5X5X5X5X5X5X5X5X5X5X5X5X5X5X5X5X3.!.z.=.y.t.$.# M._.oX{.u.L k.Z.z.z.k.k.! 5X5X5X5X5X5X5X5X",
"5X5X5X5X5X5X5X5X5X5X5X5X5X5X5X5X5X5X5X5X5Xg F 8 5X5X5XX.t H.S.6.k c k.k.k.k.k.2.! Y k 5X5X5X5X5X5X5X",
"5X5X5X5X5X5X5X5X5X5X5X5X5X5X5X5X5X5X5X5X5Xq.R 1 5X5X5X5X-..X+X~.c v >.>.>.<.u.n.N.R.I.- 5X5X5X5X5X5X",
"5X5X5X5X5X5X5X5X5X5X5X5X5X5X5X5X5X5X5X5XN x.G 5X5X5X5X5X2.G.B.3.k N.R.U.Y.@X-X;X=X}.N.* 5X5X5X5X5X5X",
"5X5X5X5X5X5X5X5X5X5X5X5X5X5X5X5X5X5X5X5X( q.s 5X5X5X5X; W.|.W.3.c R.R.n.h.>X;X;X_.N.1.5X5X5X5X5X5X5X",
"5X5X5X5X5X5X5X5X5X5X5X5X5X5X5X5X5X5X5X3 x.8.2 5X5X5X5XL |. X'.5.z P U q h. XI.j.4.2.n 5X5X5X5X5X5X5X",
"5X5X5X5X5X5X5X5X5X5X5X5X5X5X5X5X5X5XE x.K.v.C : 5X5X5Xx ) >.l.c <.k 5X5XY S.Q.).).G.2.5X5X5X5X5X5X5X",
"5X5X5X5X5X5X5X5X5X5X5X5X5X5X5X5X5XH v.b.w.( R p 5X5XN v.K.x.i.V W k 5X5XW.+X+X+X XF.7.5X5X5X5X5X5X5X",
"5X5X5X5X5X5X5X5X5X5X5X5X5X5X5X5XO H 9.s N C G 2 5X5X( K.K.K.K.w.0 % 5X% 5.>.D.+X|.F.5.X 5X5X5X5X5X5X",
"5X5X5X5X5X5X5X5X5X5X5X5X5X5X5X5X1 N s p N N d p 5X5X9.K.K.K.K.9.8.0 1 5X5X5X8 u.>.n ! % 5X5X5X5X5X5X",
"5X5X5X5X5X5X5X5X5X5X5X5X5X5X5X5X5XR H a s s s p : : w.c.v.9.x.( E C p : 5X2 R a 5X5X5X5X5X5X5X5X5X5X",
"5X5X5X5X5X5X5X5X5X5X5X5X5X5X5X5X5X5XR V u p 1 5X5XR v.V E d.G b.R p O 5Xp w.K.~ u 5X5X5X5X5X5X5X5X5X",
"5X5X5X5X5X5X5X5X5X5X5X5X5X5X5X5X5X5X5X5X5X5X5X5X5XE 9.f J 0.( d 3 1 5X5X5XE E q.w.d 5X5X5X5X5X5X5X5X",
"5X5X5X5X5X5X5X5X5X5X5X5X5X5X5X5X5X5X5X5X5X5X5X5X< g N 3 2.K 3 3 O 5X5X5X5X5X5Xp w.0.p 5X5X5X5X5X5X5X",
"5X5X5X5X5X5X5X5X5X5X5X5X5X5X5X5X5X5X5X5X5X5X5X. P h.i.i.Z * 5X5X5X5X5X5X5X5X5X5Xp 0.N o 5X5X5X5X5X5X",
"5X5X5X5X5X5X5X5X5X5X5X5X5X5X5X5X5X5X5X5X5X5X5XP <.R./.(.1.5X5X5X5X5X5X5X5X5X5X5X5X7 3.Y - 5X5X5X5X5X",
"5X5X5X5X5X5X5X5X5X5X5X5X5X5X5X5X5X5X5X5X5X5X& I.a.n.(./.c 5X5X5X. 5X5X5X5X5X5X5Xz Q. X XH.! ! Y X 5X",
"5X5X5X5X5X5X5X5X5X5X5X5X5X5X5X5X5X5X5X5X5X5XT Y.N.Y p.,.S u.S % k l L Y I n 5X. T H.W.!. X'.F.k.% 5X",
"5X5X5X5X5X5X5X5X5X5X5X5X5X5X5X5X5X5X5X5X5X. S ! / k v n./.j.w -.p.l.Q. X X'.!.3.f.).I.l.h.g.I 7.5X5X",
"5X5X5X5X5X5X5X5X5X5X5X5X5X5X5X5X5X5X5X5X5Xz k.C.z.c T./.j.1.oX;X-X_.m.h.Q.|.+X X1.).>X;X_.I.g.S 5X5X",
"5X5X5X5X5X5X5X5X5X5X5X5X5X5X5X5X5X5X5X5X5X9 n n c w -.-.m.$X;X;X;X>X;XoXj.5. X|.m.Y {.{._.R.m.u.* 5X",
"5X5X5X5X5X5X5X5X5X5X5X5X5X5X5X5X5X5X5X5X5X5X5X5X5X5X5Xx U.(._.oXOXOXoX'.Y.c U I 5X5X5X5X5X5X5X5X5X5X",
"5X5X5X5X5X5X5X5X5X5X5X5X5X5X5X5X5X5X5X5X5X5X5X5X5X5X5X5X5X5X5X5X5X5X5X5X5X5X5X5X5X5X5X5X5X5X5X5X5X5X"
};
