/* XPM */
static char *eaf51bb520db423ae2c9d75344016672UfanuuzHxavG0jIm[] = {
/* columns rows colors chars-per-pixel */
"50 50 141 2 ",
"   c None",
".  c #1B1911",
"X  c #22231C",
"o  c #252521",
"O  c #292726",
"+  c #272922",
"@  c #2B2C26",
"#  c #2E2D29",
"$  c #302F2B",
"%  c #32322D",
"&  c #353531",
"*  c #383733",
"=  c #3A3935",
"-  c #3C3C3C",
";  c #790600",
":  c #3F403C",
">  c #3B2344",
",  c #3B2F41",
"<  c #3E3144",
"1  c #444544",
"2  c #464945",
"3  c #4A4D46",
"4  c #484848",
"5  c #51514E",
"6  c #565853",
"7  c #5B5A58",
"8  c #5C7A48",
"9  c #6A6A6A",
"0  c #72726E",
"q  c #822E00",
"w  c #883E0D",
"e  c #8C420C",
"r  c #944302",
"t  c #8F4817",
"y  c #8D461B",
"u  c #8E4A1D",
"i  c #914B1F",
"p  c #8F4F24",
"a  c #924E25",
"s  c #8E5128",
"d  c #955125",
"f  c #9B5223",
"g  c #93542B",
"h  c #965932",
"j  c #9D6942",
"k  c #3DA93A",
"l  c #46B43F",
"z  c #61A73C",
"x  c #76BA36",
"c  c #75BC3F",
"v  c #7ABD3C",
"b  c #78CB36",
"n  c #75C03C",
"m  c #7AC23E",
"M  c #659243",
"N  c #6EA149",
"B  c #75AE48",
"V  c #66B346",
"C  c #6FBA4B",
"Z  c #74B041",
"A  c #7DBF41",
"S  c #7BB54A",
"D  c #7EC243",
"F  c #87C637",
"G  c #8CC53A",
"H  c #87CD3A",
"J  c #8FC83C",
"K  c #90C63D",
"L  c #91C93E",
"P  c #8AD532",
"I  c #B7865E",
"U  c #81BF45",
"Y  c #81807E",
"T  c #B8AD62",
"R  c #C6956C",
"E  c #C8976A",
"W  c #CD9E70",
"Q  c #DEB06E",
"!  c #CFA578",
"~  c #D2A475",
"^  c #D6A97A",
"/  c #F6AC6C",
"(  c #EFAD73",
")  c #F4AD72",
"_  c #EFB773",
"`  c #F7B074",
"'  c #FFB575",
"]  c #F6B27A",
"[  c #FEB57B",
"{  c #FFBD7C",
"}  c #81C244",
"|  c #84CA44",
" . c #89CB46",
".. c #84C74B",
"X. c #85CD4B",
"o. c #89CF48",
"O. c #8BC341",
"+. c #95C743",
"@. c #94CD41",
"#. c #95C44F",
"$. c #89D34A",
"%. c #96D142",
"&. c #9AD147",
"*. c #99C752",
"=. c #99C063",
"-. c #C5CE6B",
";. c #F7C27E",
":. c #848380",
">. c #898886",
",. c #8E8D8B",
"<. c #908F8D",
"1. c #949494",
"2. c #989795",
"3. c #9C9C9C",
"4. c #A2A2A2",
"5. c #A8A6A7",
"6. c #ABAAAA",
"7. c #B0AEAF",
"8. c #B4B3B2",
"9. c #B8B5B7",
"0. c #E9BC88",
"q. c #FFBE82",
"w. c #F0BD88",
"e. c #E7CD82",
"r. c #FDC485",
"t. c #F4C389",
"y. c #FCC58C",
"u. c #FDC88B",
"i. c #E8D485",
"p. c #FFC792",
"a. c #F5CC94",
"s. c #FFCE95",
"d. c #FFCB92",
"f. c #FFD192",
"g. c #FFD296",
"h. c #FFD595",
"j. c #FFDA97",
"k. c #FFD298",
"l. c #FFD59B",
"z. c #FFDF9B",
"x. c #FFDB9E",
/* pixels */
"                                                                                                    ",
"                                                                                                    ",
"                                                                                                    ",
"                                                            y u u i                                 ",
"                                                        u f f f f f r q                             ",
"                                                      u d a p a e p I ~ E                           ",
"                                                      f a i d t j t.s.x.y.                          ",
"                                                      f w g a ; ! k.y.s.r.                          ",
"                                                      r W a.~ h w.d.y.g.y.                          ",
"                                                      q 0.l.y.y.d.y.y.s.u.                          ",
"                                                        s ^ d.y.y.y.y.k.y.                          ",
"                                                          R s.y.d.h.g.u.                            ",
"                                                          a.s.d.t.                                  ",
"                                                G G G G G +.*.i.                                    ",
"                                      r.y.p.-.P &.@.%.@.L J F b =.                                  ",
"                                r.u.j.z.j.k.e.H %.L L L L K O.} n                                   ",
"                              r.l.g.r.y.          #. .} } } D D X.z                                 ",
"                            g.f.r.y.                X.D D D D } D V                                 ",
"                        ;.g.d.r.                  c | } } } D } c l k               ) q.q./         ",
"                        s.d.y.                    D } } } } } m S T Q             ] [ ] { )         ",
"                      d.p.d.                    c o.} } } } D } _ [ ' (         ) [ [ [ )           ",
"                    r.s.y.r.                    A ..} D } }  .C   r.] ' ( ) ) { { [ )               ",
"                    f.g.z.r.                    o.} } } D } v     / r.[ { r.{ ` /                   ",
"                      y.r.                    v ..} } } } X.v         ) ) ) )                       ",
"                                              | U A U D } m                                         ",
"                                            M ..| | | } $.x                                         ",
"                                            , 3 8 M N B Z                                           ",
"                                          o 1 1 < > > < <                                           ",
"                                          + % 1 2 2 2 1 2 1                                         ",
"                                          # % % 1 1 1 1 1 1 -                                       ",
"                                        % $ % # % 1 4 1 1 1 1 -                                     ",
"                                        # % $ % % & 1 4 1 1 1 4 -                                   ",
"                                        $ % % % #     - 1 1 1 1 1                                   ",
"                                      * % % $ & O       - 4 1 1 1 1                                 ",
"                                    6 # % % % O           - 4 1 1 1 -                               ",
"                                    : @ % % $               1 1 1 1 4 -                             ",
"                                1 * # % $ * O                 1 1 1 1 1 -                           ",
"    3.:.<.0 X * * * * * * * % % % $ % % * #                     1 1 1 1 1 -                         ",
"    3.Y ,.7 . % $ $ # # # # % % % % % * #                         1 1 1 1 1                         ",
"  8.2.:.<.5 + * % % % % % % % % % % @ o                             1 1 1 1 -                       ",
"  6.2.Y       % # @ @ # @ + +                                       - 1 1 1 1 -                     ",
"  4.>.                                                                - 1 1 1 4 -                   ",
"  3.                                                                    - 4 1 1 4 -                 ",
"                                                                          - 1 1 1 1 -               ",
"                                                                            1 1 1 4 -               ",
"                                                                              1 - - 9 1.4.3.3.3.    ",
"                                                                                9 3.5.4.8.7.6.      ",
"                                                                                  4.5.4.9.          ",
"                                                                                                    ",
"                                                                                                    "
};
