/* XPM */
static char *a98bf437fead429ca07a089b34962207j5gh2lqWVVaxwq1s[] = {
/* columns rows colors chars-per-pixel */
"50 50 159 2 ",
"   c None",
".  c #0F0B00",
"X  c #110D0B",
"o  c #1E1E1C",
"O  c #22221E",
"+  c #242522",
"@  c #272924",
"#  c #2B2A26",
"$  c #2D2D2A",
"%  c #302F2D",
"&  c #32312D",
"*  c #353433",
"=  c #373833",
"-  c #3A3936",
";  c #3D3C3C",
":  c #6E0000",
">  c #7E1C00",
",  c #7D2400",
"<  c #3E403C",
"1  c #40403E",
"2  c #3C2544",
"3  c #3B2A45",
"4  c #3E3344",
"5  c #423746",
"6  c #444444",
"7  c #464945",
"8  c #4A4947",
"9  c #494949",
"0  c #504F4D",
"q  c #50504D",
"w  c #505F48",
"e  c #5B5B5B",
"r  c #565655",
"t  c #5A784A",
"y  c #626262",
"u  c #6C6B6A",
"i  c gray47",
"p  c #747271",
"a  c #853700",
"s  c #8C3500",
"d  c #893E0A",
"f  c #923E03",
"g  c #86420B",
"h  c #8A4212",
"j  c #8B451D",
"k  c #8E491D",
"l  c #87451C",
"z  c #944E1D",
"x  c #9F501F",
"c  c #8F4C24",
"v  c #924D23",
"b  c #9D4F20",
"n  c #965326",
"m  c #9B5124",
"M  c #945229",
"N  c #93582B",
"B  c #9F693F",
"V  c #A76D45",
"C  c #AA6F45",
"Z  c #AA744C",
"A  c #B47B54",
"S  c #588B37",
"D  c #71BC35",
"F  c #78BA36",
"G  c #79BB3D",
"H  c #64C339",
"J  c #79C337",
"K  c #7FC73F",
"L  c #73CB3D",
"P  c #73C33F",
"I  c #648746",
"U  c #6D9C4B",
"Y  c #70A349",
"T  c #7CBF44",
"R  c #79B846",
"E  c #7EC143",
"W  c #7FC348",
"Q  c #76CD43",
"!  c #81C42C",
"~  c #8DC63D",
"^  c #8DC93F",
"/  c #87C73A",
"(  c #91C63D",
")  c #93C93F",
"_  c #82817E",
"`  c #C2BA59",
"'  c #C49367",
"]  c #D19C6B",
"[  c #CDA376",
"{  c #D6AA79",
"}  c #EFAD6E",
"|  c #F4AB66",
" . c #F5AD6C",
".. c #F9AD6E",
"X. c #EDAD7A",
"o. c #F3AE73",
"O. c #FBAC7F",
"+. c #E3B37A",
"@. c #F5B173",
"#. c #F9B072",
"$. c #FFB976",
"%. c #F2B17A",
"&. c #FCB17B",
"*. c #FDBA7C",
"=. c #81C243",
"-. c #8CC542",
";. c #82CA44",
":. c #88CF44",
">. c #81C148",
",. c #88C94B",
"<. c #91C840",
"1. c #92C54A",
"2. c #96D344",
"3. c #9AD345",
"4. c #9BD448",
"5. c #85C251",
"6. c #96CE58",
"7. c #9AC955",
"8. c #A5C44F",
"9. c #A6D257",
"0. c #ABC073",
"q. c #D3D078",
"w. c #E4C57C",
"e. c #FFC87E",
"r. c #848381",
"t. c #898785",
"y. c #898885",
"u. c #8D8C8A",
"i. c #90918D",
"p. c #939391",
"a. c #989698",
"s. c #9E9D9D",
"d. c #A2A29F",
"f. c #A4A3A3",
"g. c #A9A7A8",
"h. c #ABABAB",
"j. c #B3B0B2",
"k. c #ECBD84",
"l. c #FFBE80",
"z. c #F8BF89",
"x. c #EFB993",
"c. c #A8D489",
"v. c #EEC38E",
"b. c #FEC584",
"n. c #FDC58C",
"m. c #FECA8D",
"M. c #FED38E",
"N. c #F4C591",
"B. c #FDC691",
"V. c #FECA92",
"C. c #FFCC93",
"Z. c #FFCE95",
"A. c #FBC991",
"S. c #FFD196",
"D. c #FFD393",
"F. c #FFD099",
"G. c #FFD599",
"H. c #FFD599",
"J. c #FFD99A",
/* pixels */
"                                                                                                    ",
"                                                                                                    ",
"                                                        l v k k k c M b                             ",
"                                                    h z m m n v n z a f a                           ",
"                                                    x v v v v M g N ' { k.+.                        ",
"                                                  j m v h d M k B v.F.V.J.n.                        ",
"                                                  j m g V Z k : [ F.n.n.C.N.                        ",
"                                                  c s [ Z.Z.] A N.V.n.n.C.n.                        ",
"                                                    > ] S.n.m.V.B.n.n.n.V.n.                        ",
"                                                      , C n.A.n.n.n.n.B.J.n.                        ",
"                                                          z.S.n.m.D.m.n.n.                          ",
"                                                          w.N.Z.b.                                  ",
"                                                    -.1.4.^ ,.q.                                    ",
"                                              / ~ 3.2.^ ( ) ~ L R                                   ",
"                                        8.! 3.2.<.~ ( ( ) -.-.,.T                                   ",
"                                    n.V.M.9./ ( ^ ~ ~ -.=.E E ;.T                                   ",
"                                n.Z.G.D.n.v.7.6.~ / =.E E =.E W ;.                                  ",
"                            n.m.Z.S.n.n.      c.J W E =.=.=.=.>.Q                                   ",
"                          b.G.V.n.n.          D ;.=.=.=.=.=.=.=.5.                                  ",
"                        n.G.n.n.              ;.E =.=.=.=.=.E >.*.                    |  .%.|       ",
"                      n.F.n.b.              D ;.=.=.=.=.=.E H ` &.o.              x.o.$.%.*.e.      ",
"                      M.B.M.b.              K =.=.=.=.=.=.P 7.*.&.@.@.%.X.o. .o.#.*.$.$.*.o. .      ",
"                    n.m.m.n.              F ;.=.=.=.E =.E L 0.O.*.*.*.l.b.b.b.b.*.@.o.}             ",
"                  n.D.n.D.B.              / E T E T E >.:.G        .o.o.@.@...                      ",
"                  n.n.n.S.n.            S T =.;.;.;.;.;.J                                           ",
"                  m.G.D.J.              4 5 w t I U Y R U                                           ",
"                      b.                < 9 5 4 3 2 2 2 4                                           ",
"                                        * 9 7 6 7 7 7 7 9 ;                                         ",
"                                          = 6 6 6 6 6 6 6 6 -                                       ",
"                                          $ & ; 6 6 6 6 6 6 6 =                                     ",
"                                          $ & $ - 6 6 6 6 6 6 6                                     ",
"                                          # & & # = 6 6 6 6 6 6 6                                   ",
"                                          8 # % & # - e 9 6 6 6 8 ;                                 ",
"                                          0 # % = O 6   - 6 9 6 6 9 ;                               ",
"                                          - & & % * +     ; 6 6 6 6 9                               ",
"        d._ _ i.u                         # & & & &         9 ; 6 6 6 ;                             ",
"        f.r.u.i.q O = & $ $ $ # $ r u 1 # * % & & $         u 9 6 6 6 6                             ",
"      f.t.r.u.p X = & & & & & & & O . # & % & & &           y - 9 6 6 ;                             ",
"      s._ u.y.8 o * & & & & & & & = - = & & & $             9 6 6 6 9 -                             ",
"    f.p.r.                O + @ # # # # # #               ; 6 6 6 6 6                               ",
"    p.                                                  ; 6 6 6 6 9 -                               ",
"                                                      - 6 6 6 6 9 ;                                 ",
"                                                      6 6 6 6 6 ;                                   ",
"                                                    6 6 6 6 9 6                                     ",
"                                                  * 6 ; ; ; = -                                     ",
"                                                  e y e e e i                                       ",
"                                                  f.h.f.f.f.h.                                      ",
"                                                  f.j.f.g.f.f.f.s.a.                                ",
"                                                                                                    ",
"                                                                                                    "
};
