/* XPM */
static char *_b405ceded974b36ec6e7c77a5420460UWoeOMUhNGf9KYbA[] = {
/* columns rows colors chars-per-pixel */
"50 50 179 2 ",
"   c None",
".  c #000001",
"X  c #00001C",
"o  c #21211E",
"O  c #00002D",
"+  c #001C3A",
"@  c #061D30",
"#  c #262523",
"$  c #2E2D2B",
"%  c #292B25",
"&  c #302F2C",
"*  c #2F302A",
"=  c #32322E",
"-  c #20273D",
";  c #293237",
":  c #353533",
">  c #3D3D3D",
",  c #393836",
"<  c #771B00",
"1  c #7D2900",
"2  c #423E34",
"3  c #7F2A37",
"4  c #346239",
"5  c #4A4339",
"6  c #000041",
"7  c #2C3142",
"8  c #383D46",
"9  c #473C43",
"0  c #444444",
"q  c #484847",
"w  c #4B4B49",
"e  c #434D43",
"r  c #524D4A",
"t  c #57514C",
"y  c #524E51",
"u  c #5B5B5A",
"i  c #525250",
"p  c #675E4F",
"a  c #616151",
"s  c #6D6D6C",
"d  c #7E7364",
"f  c #7A7977",
"g  c #7A7A78",
"h  c #822B00",
"j  c #843400",
"k  c #853A01",
"l  c #8B3D01",
"z  c #8D431B",
"x  c #8C471A",
"c  c #90471A",
"v  c #90491B",
"b  c #904415",
"n  c #99511F",
"m  c #8D4B24",
"M  c #934D24",
"N  c #904F2C",
"B  c #945124",
"V  c #935229",
"C  c #9C552A",
"Z  c #9D5625",
"A  c #9C5E36",
"S  c #A05327",
"D  c #9C663D",
"F  c #A46A41",
"G  c #B16D41",
"H  c #A87249",
"J  c #AC7851",
"K  c #6ABF3E",
"L  c #76BE3B",
"P  c #6AC31C",
"I  c #5CC433",
"U  c #6EC82A",
"Y  c #6BC137",
"T  c #73C13C",
"R  c #7CC23C",
"E  c #7CCC3B",
"W  c #76C436",
"Q  c #7C8E4E",
"!  c #7BBF44",
"~  c #7CB346",
"^  c #76C144",
"/  c #7DC241",
"(  c #7ACA41",
")  c #8ABC1D",
"_  c #80BD3B",
"`  c #8DD52F",
"'  c #81C632",
"]  c #8DC63C",
"[  c #8EC83E",
"{  c #89C736",
"}  c #93C73D",
"|  c #91C93E",
" . c #95D23B",
".. c #81BF43",
"X. c #89BF4C",
"o. c #93BC53",
"O. c #A5BE5B",
"+. c #BD8C61",
"@. c #A89573",
"#. c #BA9D77",
"$. c #89BE62",
"%. c #BFA374",
"&. c #C99A6D",
"*. c #C59A74",
"=. c #D7A36B",
"-. c #CAA375",
";. c #D3A372",
":. c #D6A976",
">. c #C1B378",
",. c #DAB37B",
"<. c #F6AD6F",
"1. c #F8AB6D",
"2. c #EFAC72",
"3. c #F4AD72",
"4. c #F8AE71",
"5. c #FBAA7A",
"6. c #EBB479",
"7. c #F4B174",
"8. c #FCB475",
"9. c #FEB679",
"0. c #FEBD7E",
"q. c #F3B178",
"w. c #82C144",
"e. c #86CC43",
"r. c #8DC840",
"t. c #93C741",
"y. c #93CA45",
"u. c #9AC94C",
"i. c #82D149",
"p. c #97D444",
"a. c #98D446",
"s. c #96CB50",
"d. c #AAC559",
"f. c #B1C75B",
"g. c #A9C467",
"h. c #B6C46C",
"j. c #CFD56B",
"k. c #C9C575",
"l. c #DAC778",
"z. c #E1C17C",
"x. c #FFC17D",
"c. c #FFC075",
"v. c #F0D67C",
"b. c #858482",
"n. c #8D8C8A",
"m. c #8A8987",
"M. c #908F8D",
"N. c #949492",
"B. c #9A9A9A",
"V. c #999996",
"C. c #A09E9F",
"Z. c #A19FA0",
"A. c #A5A4A4",
"S. c #ACABAB",
"D. c #A8A7A6",
"F. c #B0ADAE",
"G. c #B3B1B1",
"H. c #C8A882",
"J. c #EAB984",
"K. c #E6BA86",
"L. c #FBBA85",
"P. c #E2C48A",
"I. c #EBC18C",
"U. c #EFC889",
"Y. c #F1C185",
"T. c #FEC384",
"R. c #F6C68D",
"E. c #FCC58C",
"W. c #F5C98C",
"Q. c #FECA8D",
"!. c #FCC884",
"~. c #EBC591",
"^. c #FDC692",
"/. c #FDCC93",
"(. c #FAC895",
"). c #FFD293",
"_. c #FFD39A",
"`. c #FFDB9A",
"'. c #FFE3A6",
/* pixels */
"                                                                                                    ",
"                                                                                                    ",
"                                                        c v m m m m V B b k 1                       ",
"                                                    c B Z C C B B B v j v A F G A                   ",
"                                                  z S V V v M V V m m +.:.K.I.Y.6.                  ",
"                                                  n N j h z j l M < ;._././././.E.                  ",
"                                                  Z x H &.;.;.D 1 J /.Q.E.E.E.E.E.                  ",
"                                                  m l ;.'._./.J.;.R.^.R.E.E.E.^.R.                  ",
"                                                    k F =.,././././.R.^.E.E.E.).Q.                  ",
"                                                        3 *.).R.R.R.).`.).)./.E.                    ",
"                                                          I.^.^.Q.).R.^.                            ",
"                                                        u.d.d.h.l.Y.                                ",
"                                                    { p. .' ' { R _                                 ",
"                                                ) { a.| [ t.t.t.R E ~                               ",
"                                              { a.y.} ] ] ] ] w.X.e.L                               ",
"                                            P ` { [ r.] } ] R ! ..i.                                ",
"                                          l.j.f.u.] } } ] / ^ w.w.^                                 ",
"                                          ).Q.^.R.U.f.W / ! w.w.e.L                                 ",
"                                        T./.E.^.^.k.! / ..w.w.w.Y                                   ",
"                                      T.).E.R./.z.K / w.w.w.w.E                                     ",
"                                      !.Q.E.W.Q.O.Y w./ ..w.W o.                                    ",
"                                      ).^.E.R.^.k.I w.../ T X.7.5.                                  ",
"                                    $.v.(.R.W.^.^.g.K w.( s.0.L.x.9.6.4.                            ",
"                                    4 Q ~./.E.W.E.^.h.U T   5.3.3.9.0.T.T.8.7.q.L.7.1.4.            ",
"                                    9 6 p I./.^.R.Q./.>.4           2.3.3.8.0.T.0.0.T.x.T.c.        ",
"                                    0 i - e P.).R.R.E.(.J.I.                  <.3.3.3.7.7.<.        ",
"                                    > 0 w ; y P._.^.E.R.Q.`.Q.                                      ",
"                                    : 0 0 r 7 w H.(./.Q.Q./._.H.                                    ",
"                                      > 0 0 r 8 + d #.-.%.@.a ;                                     ",
"                                      u 0 0 0 w r @ O + X . . % %                                   ",
"                                        > 0 0 0 0 r t r 5 5 2 : = #                                 ",
"                                        > 0 0 0 0 0 0 0 : $ & & : = #                               ",
"                                        : 0 0 0 0 0 0 0 : * = = & = =                               ",
"                                        $ 0 0 0 0 0 0 0 : * = = & = = #                             ",
"                                        > 0 0 0 0 0 0 0 : * = = = : : o                             ",
"                B.b.m.n.N.f $ $ $ $ $ : q 0 0 0 0 0 0 0 : = = : : = $                               ",
"                G.m.N.n.V.s . , = = $ > 0 0 0 0 0 0 0 0 $ $ $ $                                     ",
"                D.b.b.b.n.f # , : $ = 0 0 0 0 0 0 0 0 u                                             ",
"                S.b.b.M.m.N.s > # u q 0 0 0 0 0 0 >                                                 ",
"                S.b.n.g           w 0 0 0 0 0 0 0                                                   ",
"                G.N.f           > 0 0 0 0 0 0 0 :                                                   ",
"                              > w 0 0 0 0 0 0 :                                                     ",
"                            > w 0 0 0 0 0 0 :                                                       ",
"                          : 0 0 0 0 > w w                                                           ",
"                          u w 0 0 w 0 >                                                             ",
"                        B.A.B.B.B.B.B.N.                                                            ",
"                        D.S.D.D.D.S.F.G.G.C.Z.B.                                                    ",
"                                                                                                    ",
"                                                                                                    ",
"                                                                                                    "
};
