/* XPM */
static char *_d26ea302e3b470da443f6fcbaf1c0faKsj7ikF4C9wRlnhc[] = {
/* columns rows colors chars-per-pixel */
"50 50 169 2 ",
"   c None",
".  c #15130E",
"X  c #22231F",
"o  c #311E2B",
"O  c #242422",
"+  c #282725",
"@  c #2B2B27",
"#  c #2D2C2A",
"$  c #302F2D",
"%  c #32312D",
"&  c #372B3C",
"*  c #343432",
"=  c #383735",
"-  c #383935",
";  c #3C3C3C",
":  c #630000",
">  c #6B0000",
",  c #7D0700",
"<  c #41423F",
"1  c #3D3643",
"2  c #413446",
"3  c #423946",
"4  c #444444",
"5  c #4A4A4A",
"6  c #454C4A",
"7  c #4D5B46",
"8  c #555454",
"9  c #575858",
"0  c #556E44",
"q  c #596948",
"w  c #5A7E46",
"e  c #63654E",
"r  c #62625F",
"t  c #686866",
"y  c #737271",
"u  c #7A7A78",
"i  c #802500",
"p  c #8A2E00",
"a  c #842D00",
"s  c #912E00",
"d  c #863600",
"f  c #883000",
"g  c #893D0C",
"h  c #8B400E",
"j  c #8D4612",
"k  c #8A4519",
"l  c #8D491C",
"z  c #864417",
"x  c #90491F",
"c  c #924519",
"v  c #8E4C21",
"b  c #944E23",
"n  c #984E22",
"m  c #8E5027",
"M  c #945424",
"N  c #9C5324",
"B  c #96542B",
"V  c #95592F",
"C  c #9D572A",
"Z  c #8F5630",
"A  c #985F39",
"S  c #9C5A32",
"D  c #9A6036",
"F  c #AC794F",
"G  c #60AB3C",
"H  c #6CBF39",
"J  c #6DB13D",
"K  c #70BF37",
"L  c #73BE3C",
"P  c #7BB83F",
"I  c #5FC33A",
"U  c #6BC23D",
"Y  c #65CA3D",
"T  c #74C13C",
"R  c #76C638",
"E  c #5A8041",
"W  c #75A749",
"Q  c #6FB740",
"!  c #75C341",
"~  c #7DC144",
"^  c #7FCC42",
"/  c #8BC535",
"(  c #8AC63C",
")  c #8DCA3C",
"_  c #84CB3D",
"`  c #90C63F",
"'  c #91C83E",
"]  c #AE8054",
"[  c #B7855A",
"{  c #B6895C",
"}  c #85BE44",
"|  c #84BB4A",
" . c #8BBE48",
".. c #9EBD53",
"X. c #A9BC55",
"o. c #B19774",
"O. c #C28051",
"+. c #CC9B6E",
"@. c #D3A46C",
"#. c #CCB662",
"$. c #DCB369",
"%. c #D8A879",
"&. c #DCAC72",
"*. c #F9AA65",
"=. c #E3B66D",
"-. c #E7AB79",
";. c #F3AF71",
":. c #F8AF76",
">. c #FCAD7A",
",. c #F3B174",
"<. c #FDB071",
"1. c #FEB47A",
"2. c #82C244",
"3. c #8BC543",
"4. c #84CB45",
"5. c #8CC841",
"6. c #84C64B",
"7. c #94C742",
"8. c #92CB43",
"9. c #98C849",
"0. c #8FD644",
"q. c #95D747",
"w. c #97D445",
"e. c #9DC452",
"r. c #9FC158",
"t. c #A6C64F",
"y. c #A4C456",
"u. c #D2C86B",
"i. c #D2CC7A",
"p. c #D2C67C",
"a. c #FFC27D",
"s. c #858483",
"d. c #888786",
"f. c #8D8B89",
"g. c #959493",
"h. c #989795",
"j. c #999996",
"k. c #9D9B9C",
"l. c #A19E9F",
"z. c #A2A09E",
"x. c #A5A3A3",
"c. c #A8A6A7",
"v. c #AEACAD",
"b. c #B0AFB0",
"n. c #F3A982",
"m. c #E3B682",
"M. c #FFB780",
"N. c #F7BE83",
"B. c #FFBB81",
"V. c #E7C882",
"C. c #EDC784",
"Z. c #F6C787",
"A. c #FCC484",
"S. c #F4C58D",
"D. c #FCC58C",
"F. c #F5CA8D",
"G. c #FDC98E",
"H. c #FDC693",
"J. c #FECB92",
"K. c #FFD296",
"L. c #FFD299",
"P. c #FFD599",
"I. c #FFD59A",
"U. c #FFDE9D",
"Y. c #FFDA9B",
"T. c #FBDA90",
"R. c #FFE09D",
"E. c #FFDFA0",
"W. c #FFE5A2",
/* pixels */
"                                                                                                    ",
"                                                            k k l v l v V V Z                       ",
"                                                        c b b n N n C N f i p >                     ",
"                                                      v N B V B x B h j ] +.%.&.                    ",
"                                                    k N M j a g S b D m.J.G.J.I.                    ",
"                                                    z N d V F A g : +.L.J.D.D.Y.N.                  ",
"                                                    m s { F.J.S.{ [ S.J.D.D.H.K.A.                  ",
"                                                      , O.F.L.J.D.J.G.D.D.D.D.K.A.                  ",
"                                                        c M @.J.G.J.D.D.D.D.J.U.                    ",
"                                                            -.I.H.D.J.J.G.D.H.A.                    ",
"                                                            p.F.H.L.D.                              ",
"                                                        / ` ) 5.e.i.                                ",
"                                                      ( w.8.5.) ( _ Q                               ",
"                                                  J 4.8.' ` 5.' ' 0.R                               ",
"                                                G ^ 2.3.7.` 8.7.7.q.T                               ",
"                                            n.,.y.U } 5.' ( ( / / q.L                               ",
"                                          ;.M.=.2.! } _ ) 7.9.t.t.5.                                ",
"                                        ;.B.,.X.I 3.K e.V.S.S.H.T.X.                                ",
"                                      ;.a.>.$.! ~  .U 3.C.H.A.H.K.                                  ",
"                                      ,.1.,...U 2.2.~ K p.H.S.H.J.                                  ",
"                                      :.M.#.T 2.2.2.2.U r.S.H.D.D.D.D.                              ",
"                                      <.a.| H } ~ 2.2.2.U y.C.I.I.Y.U.I.D.D.D.D.S.    A.A.D.        ",
"                                      *.u.Y 4.2.2.2.~ ~ ~ R |     A.D.D.G.Y.E.W.R.Y.I.K.K.I.U.      ",
"                                      o.e E W W P ~ 6.2.4.2.                  D.A.D.D.D.D.D.D.      ",
"                                        1 2 1 4 6 7 q 0 w 0 o                                       ",
"                                        4 4 4 4 4 3 1 2 3 & # #                                     ",
"                                        4 4 4 4 4 4 4 4 4 % # * # +                                 ",
"                                        ; 4 4 4 4 4 4 4 < % # % % % @ O                             ",
"                                        4 4 4 4 4 4 4 4 - % % % % % * % @                           ",
"                                        4 4 4 4 4 4 ; 8 r O # * % % % * * % +                       ",
"                                        4 4 4 4 4 4 4 8       * % $ % % % % * #                     ",
"                                        4 4 4 4 4 4 ;             - # # % % % % * @                 ",
"                                      ; 4 4 4 4 4 5 -                 < @ $ % % % % @               ",
"                                      = 5 4 4 4 4 ;                     4 # % % $ % %               ",
"                                      4 4 4 4 4 5 -                   j.4 O % % % % @               ",
"                                    ; 4 4 4 4 4 ;                     4 # * % % % #                 ",
"                                  4 4 4 4 4 4 5                     * @ % % % % %                   ",
"                                8 4 4 4 4 4 5 4                   # % % % $ % % X                   ",
"                              5 4 4 4 4 4 5 4                   # % % % % % % X                     ",
"                            ; 4 4 4 4 4 4 4                   % = * % % % % O                       ",
"                          ; 4 4 4 4 4 4 4                   - . O $ * * $                           ",
"                        ; 4 4 4 4 4 4 4                 u d.d.y 8 % O #                             ",
"                      ; 4 4 4 4 4 4 4                 g.z.f.s.d.f.d.t                               ",
"                    - 5 5 4 4 4 5 ;                       x.j.h.d.s.s.                              ",
"                  s.9 = = 4 4 5 -                               x.h.k.s.                            ",
"              k.b.c.c.g.y 8 5                                         j.f.                          ",
"                k.l.v.c.c.k.                                                                        ",
"                    l.k.c.v.k.                                                                      ",
"                          k.k.h.                                                                    ",
"                                                                                                    "
};
