/* XPM */
static char *_929b46342684756b74ac1027456f3cel4NWnqKnOg10ZzJS[] = {
/* columns rows colors chars-per-pixel */
"50 50 156 2 ",
"   c None",
".  c #74500B",
"X  c #7D5917",
"o  c #58482F",
"O  c #735928",
"+  c gray30",
"@  c #4E4E4E",
"#  c gray31",
"$  c #505050",
"%  c #515150",
"&  c #515151",
"*  c #515152",
"=  c gray34",
"-  c #515259",
";  c #5A5A5A",
":  c gray36",
">  c #5D5D5D",
",  c #5F5F5D",
"<  c #6F5F44",
"1  c #626262",
"2  c #616164",
"3  c #646464",
"4  c #656565",
"5  c #666665",
"6  c gray40",
"7  c #787876",
"8  c #76797E",
"9  c gray47",
"0  c #797979",
"q  c gray48",
"w  c #7B7B7B",
"e  c #7C7C7C",
"r  c gray49",
"t  c gray50",
"y  c #845E13",
"u  c #865E12",
"i  c #8D6612",
"p  c #8D681D",
"a  c #926A12",
"s  c #956A13",
"d  c #956B13",
"f  c #976D14",
"g  c #9E7212",
"h  c #9D7115",
"j  c #9C701B",
"k  c #AD7205",
"l  c #A3700E",
"z  c #AA770E",
"x  c #AC780B",
"c  c #BB7A06",
"v  c #B87D06",
"b  c #AB7515",
"n  c #856423",
"m  c #927021",
"M  c #9D7726",
"N  c #9A772C",
"B  c #87703B",
"V  c #947530",
"C  c #90763E",
"Z  c #907A4F",
"A  c #BD8211",
"S  c #AB8027",
"D  c #BA8A23",
"F  c #BA8E2D",
"G  c #A8863F",
"H  c #B58D32",
"J  c #C28406",
"K  c #C48706",
"L  c #C78B07",
"P  c #C88B07",
"I  c #C98B07",
"U  c #CC8C07",
"Y  c #C4890B",
"T  c #D18C07",
"R  c #D59107",
"E  c #D79307",
"W  c #D49108",
"Q  c #D7950D",
"!  c #D89308",
"~  c #D89408",
"^  c #C18915",
"/  c #C38A15",
"(  c #C08A17",
")  c #C18A17",
"_  c #C48A15",
"`  c #C48B15",
"'  c #C48B17",
"]  c #C28C15",
"[  c #C28618",
"{  c #CD9215",
"}  c #D19111",
"|  c #D69312",
" . c #E19A09",
".. c #E69D08",
"X. c #E79D08",
"o. c #EBA008",
"O. c #F2A609",
"+. c #F1A60B",
"@. c #F6A809",
"#. c #F8AA09",
"$. c #FAAA09",
"%. c #FDAE09",
"&. c #FDB409",
"*. c #FDB509",
"=. c #FEB709",
"-. c #FEB909",
";. c #FEBA09",
":. c #9B834F",
">. c #7A7C88",
",. c #808080",
"<. c #818181",
"1. c #838383",
"2. c #848484",
"3. c gray53",
"4. c #8A8987",
"5. c #888888",
"6. c #8E8E8E",
"7. c #929292",
"8. c gray58",
"9. c #979797",
"0. c #9E9D9B",
"q. c gray61",
"w. c #9D9D9D",
"e. c gray62",
"r. c #9F9F9F",
"t. c #ACA49C",
"y. c #989AA6",
"u. c gray64",
"i. c #A5A5A5",
"p. c #A7A7A7",
"a. c gray66",
"s. c #A9A9A9",
"d. c gray67",
"f. c #ACACAC",
"g. c gray68",
"h. c gray69",
"j. c #B2B2B2",
"k. c gray70",
"l. c #B4B4B4",
"z. c gray71",
"x. c #B6B6B6",
"c. c #B8B7BF",
"v. c gray72",
"b. c #BBB8BF",
"n. c gray",
"m. c #C1C1C1",
"M. c gray76",
"N. c gray77",
"B. c gray78",
"V. c gray79",
"C. c #CBCBCB",
"Z. c #CDCDCD",
"A. c #D0D0D0",
"S. c LightGray",
"D. c #E0E0E2",
"F. c #E0E0E4",
/* pixels */
"                                                                                                    ",
"                                                                                                    ",
"                                                                                                    ",
"                                                                                                    ",
"                                                                                                    ",
"                                                                                                    ",
"                                                                                                    ",
"                                                                                                    ",
"                                                                                                    ",
"                                                                                                    ",
"                                                                                                    ",
"                                                                                                    ",
"                                                                                                    ",
"                                                                                                    ",
"                                                                                                    ",
"                                                                                                    ",
"                                                                                                    ",
"                                                                                                    ",
"                              S                                                                     ",
"                            G *.F                                                                   ",
"                            H ;.)                                                                   ",
"                            D ;.Q t.                      v.z.j.g.g.d.d.                            ",
"                        D.c.' *.+.< 8 7 9 9 9 9 9 9 9 9 t t t ,.t ,.,.,.t w.7.                      ",
"          z ) ) ] ' ' ) { j } *.%.C y.0.w.w.w.w.w.w.w.w.w.w.w.w.w.w.w.6.z.S.B.w.8.                  ",
"        :.T  .o.+.@.$.$.*.[ | $.%.M >.4.3.3.3.3.3.3.3.3.3.3.3.3.3.5.3.g.V.M.B.V.n.8.                ",
"        Z k v J U R ~ R X.b A ! X.p - : : : : : : : : : : : : : : : ; u.Z.M.B.V.n.8.                ",
"          . y y i a s s g X l P W O 2 6 6 6 6 6 6 6 6 6 6 6 6 6 6 6 6 1 j.S.B.w.8.                  ",
"                        F.b.f L Y o $ $ $ $ $ $ $ @ @ @ @ @ $ $ @ @ $ @ = w.7.                      ",
"                            m P x t.                    z.z.j.d.p.p.w.w.                            ",
"                            V K h                                                                   ",
"                            B c N                                                                   ",
"                              n                                                                     ",
"                                                                                                    ",
"                                                                                                    ",
"                                                                                                    ",
"                                                                                                    ",
"                                                                                                    ",
"                                                                                                    ",
"                                                                                                    ",
"                                                                                                    ",
"                                                                                                    ",
"                                                                                                    ",
"                                                                                                    ",
"                                                                                                    ",
"                                                                                                    ",
"                                                                                                    ",
"                                                                                                    ",
"                                                                                                    ",
"                                                                                                    ",
"                                                                                                    "
};
