/* XPM */
static char *a4e6ac3d00804fb1a412309507006bd3ublvEajB37FU7PBP[] = {
/* columns rows colors chars-per-pixel */
"50 50 226 2 ",
"   c #3C291C",
".  c #3D291C",
"X  c #3E2A1C",
"o  c #3D2A1C",
"O  c #3E2A1D",
"+  c #38271B",
"@  c #35261A",
"#  c #36261A",
"$  c #35251A",
"%  c #352519",
"&  c #36261B",
"*  c #36271B",
"=  c #36251A",
"-  c #3A281C",
";  c #54311F",
":  c #63351E",
">  c #5F331E",
",  c #61341E",
"<  c #60331D",
"1  c #5E321D",
"2  c #60341F",
"3  c #63361F",
"4  c #5E331D",
"5  c #60321C",
"6  c #5F321C",
"7  c #5F341E",
"8  c #603620",
"9  c #60351F",
"0  c #62341D",
"q  c #5F331D",
"w  c #61331C",
"e  c #61331D",
"r  c #5E321C",
"t  c #62341E",
"y  c #61341D",
"u  c #5F341F",
"i  c #64351F",
"p  c #462D1E",
"a  c #39281C",
"s  c #39281B",
"d  c #492E1E",
"f  c #B45F36",
"g  c #C5683C",
"h  c #C1663B",
"j  c #C3673B",
"k  c #C2663B",
"l  c #C2673B",
"z  c #C1653B",
"x  c #C3673C",
"c  c #C8693D",
"v  c #904E2D",
"b  c #37271B",
"n  c #96512F",
"m  c #CA6B3E",
"M  c #C1673C",
"N  c #C3683C",
"B  c #C2673C",
"V  c #C3683D",
"C  c #B05B33",
"Z  c #663A23",
"A  c #35261B",
"S  c #34261A",
"D  c #6C3E26",
"F  c #C2653A",
"G  c #BB633A",
"H  c #C1663C",
"J  c #C0663B",
"K  c #C0663C",
"L  c #A55530",
"P  c #994E2B",
"I  c #4E301F",
"U  c #38281B",
"Y  c #87482A",
"T  c #A2532D",
"R  c #A35530",
"E  c #AD5B34",
"W  c #AB5A34",
"Q  c #AC5A34",
"!  c #AE5B34",
"~  c #AF5C35",
"^  c #AE5B35",
"/  c #8E4928",
"(  c #894424",
")  c #6A3921",
"_  c #3A281B",
"`  c #834628",
"'  c #9D502B",
"]  c #A1542F",
"[  c #AA5933",
"{  c #A95832",
"}  c #A95933",
"|  c #A95833",
" . c #A85832",
".. c #AB5933",
"X. c #8B4727",
"o. c #874324",
"O. c #683821",
"+. c #804528",
"@. c #9E512C",
"#. c #A0532F",
"$. c #A95932",
"%. c #894626",
"&. c #693921",
"*. c #814528",
"=. c #9E502C",
"-. c #8D4828",
";. c #884424",
":. c #39271B",
">. c #9E502B",
",. c #A2542F",
"<. c #8C4828",
"1. c #673821",
"2. c #844628",
"3. c #7F4528",
"4. c #8C4727",
"5. c #9F512C",
"6. c #824628",
"7. c #884324",
"8. c #673820",
"9. c #8A4727",
"0. c #AB5A33",
"q. c #864324",
"w. c #7E4528",
"e. c #A1532F",
"r. c #814628",
"t. c #A85933",
"y. c #8A4525",
"u. c #8A4627",
"i. c #A0512C",
"p. c #8C4728",
"a. c #844728",
"s. c #8B4525",
"d. c #693821",
"f. c #392519",
"g. c #824527",
"h. c #8C4827",
"j. c #3A271B",
"k. c #894627",
"l. c #894525",
"z. c #894425",
"x. c #854729",
"c. c #8C4625",
"v. c #7E4427",
"b. c #9F502C",
"n. c #8F4A29",
"m. c #834527",
"M. c #683921",
"N. c #8F4929",
"B. c #854728",
"V. c #8B4625",
"C. c #9E522E",
"Z. c #A65731",
"A. c #A65732",
"S. c #A75732",
"D. c #A75832",
"F. c #8B4728",
"G. c #A4542E",
"H. c #A85831",
"J. c #B25E36",
"K. c #B05C35",
"L. c #B15D35",
"P. c #B05D35",
"I. c #B05C34",
"U. c #B15C35",
"Y. c #AF5C34",
"T. c #944C2A",
"R. c #8F4726",
"E. c #753E23",
"W. c #884527",
"Q. c #874628",
"!. c #8D4A2A",
"~. c #8B4929",
"^. c #8C492A",
"/. c #884829",
"(. c #894829",
"). c #8A492A",
"_. c #8B492A",
"`. c #8B4829",
"'. c #8E4929",
"]. c #8A4829",
"[. c #8E4A2A",
"{. c #8F4A2A",
"}. c #874829",
"|. c #8D492A",
" X c #783E23",
".X c #773D21",
"XX c #59331F",
"oX c #38281C",
"OX c #3C2A1D",
"+X c #392215",
"@X c #33180C",
"#X c #30160A",
"$X c #2F1308",
"%X c #2F1408",
"&X c #2E1408",
"*X c #301408",
"=X c #311408",
"-X c #2E1308",
";X c #311508",
":X c #31190D",
">X c #352014",
",X c #3B281B",
"<X c #3A271A",
"1X c #32180C",
"2X c #301307",
"3X c #2F1207",
"4X c #381F12",
"5X c #3D2B1D",
"6X c #351D11",
"7X c #311509",
"8X c #311609",
"9X c #301509",
"0X c #3C1E10",
"qX c #3E291B",
"wX c #3B291C",
"eX c #3C281B",
"rX c #3B271A",
"tX c #392417",
"yX c #3A2518",
"uX c #3A2519",
"iX c #382316",
"pX c #392518",
"aX c #392418",
"sX c #3B261A",
"dX c #3A2619",
"fX c #EFEFEF",
/* pixels */
"      . X o O O O o o X X O O O O X o X X o o X o o X X O X X O O O O O O O O O O X o O O O .       ",
"    . + @ # $ $ % # & # # @ $ % $ # & # # * # # * & # # $ # # % % $ $ $ $ $ $ $ $ # & = $ $ - .     ",
"  . + ; : > , < < 1 2 3 4 < < 5 6 4 7 > 4 8 > 4 8 9 4 7 0 1 q w e q e r e < e t y 4 u < < i p a .   ",
". s d f g h j k l h k j h k k l k h h h h h h h z h h k j h h x x k l k j k l j j h h k h c v b .   ",
". + n m M N B B B N N B N B B B B N N B B N N B N N N N B N N B B B B x B B B B B N N B B V C Z A X ",
"S D F G H J K K K K K K K K K K K K J H h J K M J K K K K K K K K K K K K K K K K K K K J B L P I U ",
"+ Y T R E W Q Q Q Q Q Q Q Q Q Q Q Q W ! E W Q ~ W Q Q Q Q Q Q Q Q Q Q Q Q Q Q Q Q Q Q Q W ^ / ( ) * ",
"_ ` ' ] [ { { { } } { { { { | { { { {  . .} {  .} } } } { | { { { {  .{ } { { { { | } {  ...X.o.O.b ",
"+ +.@.#.[  . . . .}  . . . .{ {  . . . . .} { { { { {  .{ {  .$.}  .{ $.{  .{  .{ { } {  .[ %.( &.b ",
"s *.=.] [  . . .{ { { } {  .{  . . . . . . . .{ { { { { {  .}  .{  .{  . . .{ } { {  .{  ...-.;.O.b ",
":.*.>.,.}  . .} {  .{ {  .{  . .{ { {  .{  .}  . . .{  .}  . . . . . . . . .{ {  .} {  . .[ <.o.1.b ",
"_ 2.=.] }  .}  . . .{  .{  . . . .{  . . .}  .{  . .{ {  . . .{ {  .{  .{  . . . .{  . . .[ X.o.O.b ",
"+ 3.=.#.}  .[ { { } } {  .{ {  . . .{ {  .{ } { {  . .{ {  . . . .{ } {  .{  . .{  . .}  .[ X.o.O.b ",
"s *.@.,.}  .{ {  . .{ }  . . .{ {  .}  . . .{  . .{  . . . .{  . . .{  .{ {  . . . . . . .[ 4.o.O.b ",
":.*.5.] [  . . . . . .{  . . . .}  . .}  . . . .{  .{  . . . . .{ {  .{  .[  . . . .{ }  .[ 4.o.O.b ",
"_ 2.=.] [  .{  . . . . . . . . . . . . . .{  .{ {  . . .{  . .} {  .{ {  .{  . . . . .{  .[ 4.o.O.b ",
"+ 3.=.#.[ } { {  . . .{  . . . . .{ }  .{ {  .{  . . . . .{  . .{  . . . . . .}  . . . . .[ 4.o.O.b ",
":.6.5.#.[  . .} {  . . .{  . . . . .{ {  . .{  . . .{ { {  . . .}  . .} {  .} } { {  . . ...4.7.8.b ",
"s *.=.] [  . .{ } }  . .{  . . . . . . .{  . . . . .[  . . . . .{  .{ {  .{  . .} [  . . .[ 9.( 8.b ",
"+ +.=.#.[ } }  . . .{ { { { { {  .}  . . . . . . . .}  . .{  . .{  . . . .{  . . .{ }  . .[ X.o.&.b ",
"s *.@.,.[  .}  .{  . .{ { } { {  .{ {  . .{  .{  . . . . .{ }  . . . . . .{ } { {  . .{  .0.<.o.O.b ",
"+ 6.5.#.[  . . . . .{  . .} { }  . .{  . .{  . . . .{  . . .}  . . .{ }  .{ } {  .}  . . ...X.q.O.b ",
"_ 2.=.] [  .{  . . .{ {  . . .{  .{  . . .} { { { {  .{  . .{  . . .{  . .}  .{  . .{  . .[ <.( O.b ",
"+ w.5.e.[  . . .{  . . .{ {  . .{ }  . . . . .{ {  .{  . . . . .{ {  . .{  . . . . .{ {  .[ X.o.O.b ",
"_ 2.=.] [  . . . . .{  .{  .{ {  . .{ {  .{  . .{  . . .{  . .{  .{  .[ }  .{ { {  .{ {  .[ X.o.O.b ",
":.r.=.] [  . .{  . .{ {  . . . . . . . . . . . . . . . .{  .}  . . . .{  .{ {  . .t. . . .[ X.o.O.b ",
"+ 6.5.#.[  . . . .{ } {  . . .{  .} {  . . . .} {  . . . . . . . . .{  . . . .}  .}  .{  .[ X.o.8.b ",
"_ 2.=.] [ { {  . . . . . . . .{ }  . .} {  .{  . . . . . . . . . . . . .{  . .{ {  . .}  .[ X.y.O.b ",
"+ 3.=.] [  . . . . .{  . . .}  . .{ { {  . .{  . . .{  . . . .{ { {  . . . . . . . .{  . .[ u.( &.b ",
":.6.@.] [  .{  . . .{ { {  .{  . .{ {  . .{  .} {  . .{  . . . . . . . .{ {  . . .{  . . .[ X.y.O.b ",
"+ 6.i.] [  . . . . .{ } {  . . . . .{ {  .{  .{ { }  . . . .{ }  .{  .{ {  . . .{ { } {  .[ p.o.O.b ",
"- a.' e.[  . . . .} }  .{ {  . . .{ { } {  . . . . . . .{  . .{ { {  .{ { {  .} { { } {  .0.<.s.d.b ",
"f.g.@.] [  .{ { { {  .{ {  . .{  . . . . . . . .{  . . .{  . . . . . .{  .} {  . . . . . ...h.y.8.b ",
"j.` =.] [  . . .}  . .} { {  .{  . . . . . . . . .{ }  .{  . . . . . . . . . . . .{  . . .[ k.l.O.b ",
"+ 3.=.e.[  . .{ { {  . .{ { { {  . . .}  . . . .}  . . .{  . . . . .{ { {  . .{  . . . . .0./ 7.8.b ",
":.6.i.] [  .{  . .{  .{ { {  . . . .{  . . . . .{ { { }  . . . . . . . .{  . . . .}  .{ { ..k.z.O.b ",
":.*.5.] [  . . . . . . .{ {  . . . . . . . .{ {  .{ {  . . . . .{  . . . . . . .{  . . . ...X.y.&.b ",
"_ x.=.e.[  . . .{  . . .{  . .{  . . . . . . .}  . . .{  . .{ { {  .} { { { {  . . . . . .[ X.c.O.b ",
"+ v.b.] [  . .}  .{  . . . .{  . . . . . . . . . . . . . . . .{  . .{  . . . .}  . . . . .0.n.z.O.b ",
"_ m.' #.[  . . . . . .{ {  .} {  .{ { { {  . . . .}  .{  . .} {  .{  . . . . .{ {  . .{ { ..X.( M.b ",
":.*.=.] [  . .} { { {  .{ {  . .{ { {  . . .{  .{  . .} }  . .{  .{  .{ }  . . . .{  . . ...N.y.O.b ",
":.*.=.] [  .{ { {  .{  . . .{  . . . . . . .{ {  . . . .{  . .{  . .{ {  . . . . . .{  . .[ X.z.O.b ",
"_ B.=.] [  .{  . . . .{ } { { {  .{ {  .} { { { {  .{  . .{  .{  . . .{  .{  .{  .} {  . .[ X.V.O.b ",
"+ 3.' C. .Z.Z.A.S.Z.S.S.Z.S.S.S.Z.Z.S.S.S.S.S.Z.Z.Z.Z.S.S.S.Z.S.S.Z.S.S.S.D.S.D.S.A.S.S.Z.{ F.;.O.b ",
"_ Y G.H.J.K.K.L.K.K.K.P.K.K.~ K.~ K.~ K.K.K.I.K.U.Y.K.K.K.U.K.K.K.P.K.K.L.Y.K.K.K.L.K.K.K.L.T.R.) b ",
"_ E.W.Q.!.~.^./.^.(.).~._.`.'.]._._.[.].(.^.~._._.{./._._./.!.}.|.[.].^._.n.(.^./.(.^._.~.{. X.XXXoX",
"OX+X@X#X$X%X%X&X%X&X%X%X%X*X=X%X%X%X*X%X&X%X%X%X%X*X&X%X%X-X%X-X*X%X%X%X&X;X%X%X&X&X%X%X%X*X:X>X,X  ",
"  OX<X1X2X*X*X*X*X*X*X*X*X*X*X*X*X*X*X*X*X*X*X*X*X*X*X*X*X*X*X*X*X*X*X*X*X*X*X*X*X*X*X*X*X3X4X.     ",
"    5X6X=X7X7X7X7X7X7X*X7X7X7X7X7X7X7X7X7X7X7X8X7X7X7X7X7X7X7X7X7X7X7X7X7X7X7X7X7X7X7X7X7X9X0XqXwX  ",
"      eXrXtXtXyXyXtXuXiXpXtXtXtXaXtXaXtXyXyXyXsXtXtXyXyXtXtXdXtXaXaXtXtXtXaXaXaXtXtXtXtXpX,X_       "
};
